<mxfile host="app.diagrams.net" modified="2023-01-01T00:00:00.000Z" agent="Mozilla/5.0" version="20.7.3">
  <diagram name="Topologia Corporativa" id="0">
    <mxGraphModel grid="1" gridSize="10" guides="1" tooltips="1" connect="1" arrows="1" fold="1" page="1" pageScale="1" pageWidth="827" pageHeight="1169" math="0" shadow="0">
      <root>
        <!-- Internet -->
        <mxCell id="internet" value="Internet" style="shape=cloud;whiteSpace=wrap;fontStyle=1;" vertex="1" parent="1">
          <mxGeometry x="200" y="20" width="120" height="80" as="geometry"/>
        </mxCell>
        
        <!-- Roteador -->
        <mxCell id="router" value="&lt;b&gt;Roteador Gateway&lt;/b&gt;&lt;br&gt;NAT/OSPF/ACL" style="shape=router;whiteSpace=wrap;html=1;" vertex="1" parent="1">
          <mxGeometry x="220" y="140" width="80" height="80" as="geometry"/>
        </mxCell>
        <mxCell id="link1" value="" style="endArrow=classic;html=1;" edge="1" parent="1" source="internet" target="router">
          <mxGeometry width="50" height="50" relative="1" as="geometry"/>
        </mxCell>

        <!-- Switch L3 -->
        <mxCell id="switchL3" value="&lt;b&gt;Switch Camada 3&lt;/b&gt;&lt;br&gt;VLAN 10/20" style="shape=switch;whiteSpace=wrap;html=1;" vertex="1" parent="1">
          <mxGeometry x="220" y="260" width="80" height="80" as="geometry"/>
        </mxCell>
        <mxCell id="link2" value="" style="endArrow=classic;html=1;" edge="1" parent="1" source="router" target="switchL3">
          <mxGeometry width="50" height="50" relative="1" as="geometry"/>
        </mxCell>

        <!-- Switches L2 -->
        <mxCell id="switchVLAN10" value="&lt;b&gt;Switch VLAN 10&lt;/b&gt;&lt;br&gt;REDE_INTERNA" style="shape=switch;whiteSpace=wrap;html=1;fillColor=#dae8fc;" vertex="1" parent="1">
          <mxGeometry x="100" y="380" width="80" height="80" as="geometry"/>
        </mxCell>
        <mxCell id="switchVLAN20" value="&lt;b&gt;Switch VLAN 20&lt;/b&gt;&lt;br&gt;REDE_FINANCEIRO" style="shape=switch;whiteSpace=wrap;html=1;fillColor=#f8cecc;" vertex="1" parent="1">
          <mxGeometry x="340" y="380" width="80" height="80" as="geometry"/>
        </mxCell>
        <mxCell id="link3" value="" style="endArrow=classic;html=1;" edge="1" parent="1" source="switchL3" target="switchVLAN10">
          <mxGeometry width="50" height="50" relative="1" as="geometry"/>
        </mxCell>
        <mxCell id="link4" value="" style="endArrow=classic;html=1;" edge="1" parent="1" source="switchL3" target="switchVLAN20">
          <mxGeometry width="50" height="50" relative="1" as="geometry"/>
        </mxCell>

        <!-- PCs -->
        <mxCell id="pc1" value="&lt;b&gt;PC1&lt;/b&gt;&lt;br&gt;192.168.1.10" style="shape=pc;whiteSpace=wrap;html=1;" vertex="1" parent="1">
          <mxGeometry x="120" y="500" width="40" height="60" as="geometry"/>
        </mxCell>
        <mxCell id="pc2" value="&lt;b&gt;PC2&lt;/b&gt;&lt;br&gt;192.168.2.20" style="shape=pc;whiteSpace=wrap;html=1;" vertex="1" parent="1">
          <mxGeometry x="360" y="500" width="40" height="60" as="geometry"/>
        </mxCell>
        <mxCell id="link5" value="" style="endArrow=classic;html=1;" edge="1" parent="1" source="switchVLAN10" target="pc1">
          <mxGeometry width="50" height="50" relative="1" as="geometry"/>
        </mxCell>
        <mxCell id="link6" value="" style="endArrow=classic;html=1;" edge="1" parent="1" source="switchVLAN20" target="pc2">
          <mxGeometry width="50" height="50" relative="1" as="geometry"/>
        </mxCell>
      </root>
    </mxGraphModel>
  </diagram>
</mxfile>
